HIERARCHY
ROOT hip
{
  OFFSET 0 0 0
  CHANNELS 6 Xposition Yposition Zposition Zrotation Yrotation Xrotation
  JOINT abdomen
  {
    OFFSET 0 20.6881 -0.73152
    CHANNELS 3 Zrotation Xrotation Yrotation
    JOINT chest
    {
      OFFSET 0 11.7043 -0.48768
      CHANNELS 3 Zrotation Xrotation Yrotation
      JOINT neck
      {
        OFFSET 0 22.1894 -2.19456
        CHANNELS 3 Zrotation Xrotation Yrotation
        JOINT head
        {
          OFFSET -0.24384 7.07133 1.2192
          CHANNELS 3 Zrotation Xrotation Yrotation
          JOINT leftEye
          {
            OFFSET 4.14528 8.04674 8.04672
            CHANNELS 3 Zrotation Xrotation Yrotation
            End Site
            {
              OFFSET 1 0 0
            }
          }
          JOINT rightEye
          {
            OFFSET -3.6576 8.04674 8.04672
            CHANNELS 3 Zrotation Xrotation Yrotation
            End Site
            {
              OFFSET 1 0 0
            }
          }
        }
      }
      JOINT rCollar
      {
        OFFSET -2.68224 19.2634 -4.8768
        CHANNELS 3 Zrotation Xrotation Yrotation
        JOINT rShldr
        {
          OFFSET -8.77824 -1.95073 1.46304
          CHANNELS 3 Zrotation Xrotation Yrotation
          JOINT rForeArm
          {
            OFFSET -28.1742 -1.7115 0.48768
            CHANNELS 3 Zrotation Xrotation Yrotation
            JOINT rHand
            {
              OFFSET -22.5879 0.773209 7.07136
              CHANNELS 3 Zrotation Xrotation Yrotation
              JOINT rThumb1
              {
                OFFSET -1.2192 -0.487915 3.41376
                CHANNELS 3 Zrotation Xrotation Yrotation
                JOINT rThumb2
                {
                  OFFSET -3.37035 -0.52449 3.41376
                  CHANNELS 3 Zrotation Xrotation Yrotation
                  End Site
                  {
                    OFFSET -1.78271 -1.18214 1.43049
                  }
                }
              }
              JOINT rIndex1
              {
                OFFSET -7.75947 0.938293 5.60832
                CHANNELS 3 Zrotation Xrotation Yrotation
                JOINT rIndex2
                {
                  OFFSET -2.54057 -0.884171 1.56538
                  CHANNELS 3 Zrotation Xrotation Yrotation
                  End Site
                  {
                    OFFSET -1.62519 -0.234802 1.16502
                  }
                }
              }
              JOINT rMid1
              {
                OFFSET -8.24714 1.18213 3.41376
                CHANNELS 3 Zrotation Xrotation Yrotation
                JOINT rMid2
                {
                  OFFSET -3.10165 -0.590103 1.0647
                  CHANNELS 3 Zrotation Xrotation Yrotation
                  End Site
                  {
                    OFFSET -2.48547 -0.328903 0.83742
                  }
                }
              }
              JOINT rRing1
              {
                OFFSET -8.82822 0.546677 1.51678
                CHANNELS 3 Zrotation Xrotation Yrotation
                JOINT rRing2
                {
                  OFFSET -2.60934 -0.819778 -0.0198488
                  CHANNELS 3 Zrotation Xrotation Yrotation
                  End Site
                  {
                    OFFSET -2.33842 -0.294052 0.168128
                  }
                }
              }
              JOINT rPinky1
              {
                OFFSET -8.27202 -0.0477905 -0.4584
                CHANNELS 3 Zrotation Xrotation Yrotation
                JOINT rPinky2
                {
                  OFFSET -1.82734 -0.647385 -0.700984
                  CHANNELS 3 Zrotation Xrotation Yrotation
                  End Site
                  {
                    OFFSET -1.69225 -0.51767 -0.607171
                  }
                }
              }
            }
          }
        }
      }
      JOINT lCollar
      {
        OFFSET 2.68224 19.2634 -4.8768
        CHANNELS 3 Zrotation Xrotation Yrotation
        JOINT lShldr
        {
          OFFSET 8.77824 -1.95073 1.46304
          CHANNELS 3 Zrotation Xrotation Yrotation
          JOINT lForeArm
          {
            OFFSET 28.1742 -1.7115 0.48768
            CHANNELS 3 Zrotation Xrotation Yrotation
            JOINT lHand
            {
              OFFSET 22.5879 0.773209 7.07136
              CHANNELS 3 Zrotation Xrotation Yrotation
              JOINT lThumb1
              {
                OFFSET 1.2192 -0.487915 3.41376
                CHANNELS 3 Zrotation Xrotation Yrotation
                JOINT lThumb2
                {
                  OFFSET 3.37035 -0.52449 3.41376
                  CHANNELS 3 Zrotation Xrotation Yrotation
                  End Site
                  {
                    OFFSET 1.78271 -1.18214 1.43049
                  }
                }
              }
              JOINT lIndex1
              {
                OFFSET 7.75947 0.938293 5.60832
                CHANNELS 3 Zrotation Xrotation Yrotation
                JOINT lIndex2
                {
                  OFFSET 2.54057 -0.884171 1.56538
                  CHANNELS 3 Zrotation Xrotation Yrotation
                  End Site
                  {
                    OFFSET 1.62519 -0.234802 1.16502
                  }
                }
              }
              JOINT lMid1
              {
                OFFSET 8.24714 1.18213 3.41376
                CHANNELS 3 Zrotation Xrotation Yrotation
                JOINT lMid2
                {
                  OFFSET 3.10165 -0.590103 1.0647
                  CHANNELS 3 Zrotation Xrotation Yrotation
                  End Site
                  {
                    OFFSET 2.48547 -0.328903 0.83742
                  }
                }
              }
              JOINT lRing1
              {
                OFFSET 8.82822 0.546677 1.51678
                CHANNELS 3 Zrotation Xrotation Yrotation
                JOINT lRing2
                {
                  OFFSET 2.60934 -0.819778 -0.0198488
                  CHANNELS 3 Zrotation Xrotation Yrotation
                  End Site
                  {
                    OFFSET 2.33842 -0.294052 0.168128
                  }
                }
              }
              JOINT lPinky1
              {
                OFFSET 8.27202 -0.0477905 -0.4584
                CHANNELS 3 Zrotation Xrotation Yrotation
                JOINT lPinky2
                {
                  OFFSET 1.82734 -0.647385 -0.700984
                  CHANNELS 3 Zrotation Xrotation Yrotation
                  End Site
                  {
                    OFFSET 1.69225 -0.51767 -0.607171
                  }
                }
              }
            }
          }
        }
      }
    }
  }
  JOINT rButtock
  {
    OFFSET -8.77824 4.35084 1.2192
    CHANNELS 3 Zrotation Xrotation Yrotation
    JOINT rThigh
    {
      OFFSET 0 -1.70687 -2.19456
      CHANNELS 3 Zrotation Xrotation Yrotation
      JOINT rShin
      {
        OFFSET 0 -36.8199 0.73152
        CHANNELS 3 Zrotation Xrotation Yrotation
        JOINT rFoot
        {
          OFFSET 0.73152 -45.1104 -5.12064
          CHANNELS 3 Zrotation Xrotation Yrotation
          End Site
          {
            OFFSET -1.1221 -3.69964 12.103
          }
        }
      }
    }
  }
  JOINT lButtock
  {
    OFFSET 8.77824 4.35084 1.2192
    CHANNELS 3 Zrotation Xrotation Yrotation
    JOINT lThigh
    {
      OFFSET 0 -1.70687 -2.19456
      CHANNELS 3 Zrotation Xrotation Yrotation
      JOINT lShin
      {
        OFFSET 0 -36.8199 0.73152
        CHANNELS 3 Zrotation Xrotation Yrotation
        JOINT lFoot
        {
          OFFSET -0.73152 -45.1104 -5.12064
          CHANNELS 3 Zrotation Xrotation Yrotation
          End Site
          {
            OFFSET 1.1221 -3.69964 12.103
          }
        }
      }
    }
  }
}
MOTION
Frames:	6
Frame Time:	0.00833333
0.15055723 75.29539 0.50174195 -178.38765 -0.07673892 -177.10435 -1.4048687 3.7353444 4.151623 2.2769449 -7.242549 1.3752116 -5.4913216 13.691925 -4.0573764 6.6571836 -20.075752 -7.2741003 -0.09042518 -0.027949888 0.06877218 0.051159564 -0.001274269 0.005904424 0.010863181 -0.01994473 0.0024508059 26.562634 58.646465 38.30898 -27.906284 -44.379242 93.65174 -0.9618036 28.16453 3.5359385 0.06774573 -0.013718922 -0.09319312 -0.03420002 0.08106842 0.043918822 -0.03569257 0.020789986 -0.00039056386 7.6676335 5.4944735 0.3513567 0.10437762 -0.06379879 0.054131817 2.8294318 0.9781096 0.16450498 -0.06313457 0.025652673 -0.0011341869 10.271581 0.69410515 0.07243174 -0.05707346 0.0146432575 0.08216889 2.2984898 -0.7493337 -0.24038036 0.009129107 0.05732857 0.107294984 -12.658975 56.518353 -65.937256 28.035252 -42.687332 -89.56339 0.06277821 22.68277 -3.3789926 0.019868437 -0.07181525 -0.0056541213 -0.053935077 -0.04160982 -0.050559677 -0.079102375 -0.13668771 -0.02338715 -7.7025623 5.3672194 -0.42087623 0.14905445 0.030732244 -0.049978662 -2.839919 0.92222154 -0.11390418 -0.114769205 0.040992334 -0.0021766892 -10.296739 0.69780046 -0.054289423 -0.075683594 -0.02100865 -0.060506307 -2.2396584 -0.8095345 0.1221817 -0.00020119158 -0.025030244 -0.040377777 7.1123915 -36.610245 2.257485 -1.0034322 60.54018 1.9475338 -4.2933784 -22.47221 -8.700014 0.01659719 -0.0089257555 -0.061222747 -9.668217 -37.907814 -6.6713643 0.8692916 60.631416 -1.7673887 7.8382335 -22.32873 14.650913
0.1441164 73.27189 1.1046989 -178.61223 0.4294017 -177.37529 -1.5175697 3.9074726 4.4666767 2.195538 -7.2686605 1.343502 -5.5863504 13.118956 -4.12858 6.46901 -19.683136 -7.1819015 0.006543689 -0.026375555 0.10913289 0.08810914 -0.075461864 -0.07288726 0.10110056 -0.025316011 0.105240665 22.611036 55.707764 39.934917 -26.080503 -44.57392 92.45946 -1.6559302 28.479378 3.961951 0.09527038 -0.04902981 -0.085769564 -0.030321676 0.11872442 -0.050636664 0.04720277 0.011430351 -0.10069017 7.616714 5.507829 0.35830873 0.13711594 -0.029129578 -0.019732198 2.9095993 0.9514765 0.14483444 -0.077344045 0.08822662 0.06235 10.334015 0.7451871 0.03272513 0.015042794 0.026808888 0.092025034 2.2275915 -0.68594486 -0.26185432 0.012173649 0.07093488 0.10538861 -9.756415 54.674873 -65.882286 26.813036 -43.316177 -89.10792 0.33534497 23.77454 -4.01002 0.018409375 -0.09095329 0.01184883 -0.08335291 -0.07528944 -0.060538672 -0.0934179 -0.06564923 -0.07902303 -7.7308245 5.428612 -0.4286212 0.11020327 -0.020153958 0.04908 -2.8494005 0.8980932 -0.15702851 -0.053028427 0.10789552 0.02420803 -10.246496 0.69684666 -0.03417234 0.0009756307 0.054540165 -0.114793785 -2.254506 -0.73026454 0.13278729 0.030236596 -0.00999813 -0.042303767 6.769815 -36.757378 2.109717 -0.93314785 61.548855 1.7868539 -4.356163 -22.593203 -7.516481 0.08059672 -0.025479235 -0.035890885 -8.824796 -37.921677 -6.9258595 1.3620338 61.344715 -2.0996814 7.5870914 -22.526823 14.640665
-0.11464171 74.59256 1.0774453 -178.32864 0.33300447 -177.3625 -1.3974518 4.3652635 4.3209386 2.2650099 -6.949677 1.2405155 -5.6790185 12.939395 -4.264829 6.369633 -19.522331 -7.1747932 0.024107324 -0.048356637 0.0043537817 0.050043236 -0.048109386 -0.051035173 0.097621426 -0.019385284 0.0953729 20.188646 52.811775 42.4647 -26.464567 -44.856194 93.70652 -1.2262903 29.195019 3.9749856 0.10071527 -0.060813308 -0.02359537 -0.046713687 0.05905207 -0.036827628 0.022975279 0.009532054 -0.09466572 7.7130446 5.4179344 0.34692925 0.116325594 -0.03356381 0.0021457372 2.9134514 0.96584517 0.13234088 -0.0477413 0.05875845 0.08587461 10.325246 0.7842118 0.0077358806 0.002701662 -0.017835228 0.098943725 2.2012076 -0.738281 -0.26169917 0.04721944 0.0054857573 0.060338028 -8.843219 52.79839 -67.60058 27.248968 -43.394775 -90.22097 -0.06228627 23.744526 -3.6390576 0.0011593926 -0.055655167 0.006893041 -0.032967538 -0.040259514 -0.058789983 -0.07660644 -0.024934504 -0.0022219103 -7.7197795 5.486422 -0.38715014 0.08448065 -0.0048458665 0.038441032 -2.915751 0.9385242 -0.14825155 -0.07298456 0.076849416 0.0012551225 -10.177209 0.7312784 -0.0020937435 0.009243638 0.0585961 -0.067247964 -2.2316446 -0.7616342 0.16357131 0.014459004 -0.024570063 -0.032051746 7.765009 -36.384438 2.4277666 -0.957447 61.100956 1.3899062 -4.290435 -22.304451 -8.100797 0.07021268 -0.008290858 -0.005334395 -8.701781 -37.469215 -6.8094893 1.2822919 61.92765 -1.9887214 7.587785 -22.515562 14.5035
-0.076319836 75.264 0.91504645 -178.32529 0.96363515 -177.38577 -1.7274103 4.3541846 4.34197 2.5021842 -6.833524 1.2813677 -5.5974984 12.937703 -4.1640773 6.1585336 -19.49662 -7.117643 0.0050246534 -0.027406648 0.014827492 -0.018369175 -0.023720074 -0.03002528 0.07048299 -0.040047165 0.065459825 18.384226 51.88442 42.599575 -26.486477 -45.75584 95.16371 -1.3779573 29.294281 3.8958645 0.10345833 -0.06444746 -0.019861646 -0.045584034 0.051139172 -0.060454465 -0.0060487934 0.013073374 -0.07554767 7.7399836 5.3825035 0.35158458 0.10841724 -0.051596787 0.035476387 2.9077253 0.9773335 0.1440105 -0.060085468 0.0142233595 0.059956003 10.290632 0.7821618 0.025317939 0.018853009 -0.04010495 0.11262565 2.172832 -0.77051115 -0.27385774 0.04009488 -0.013843089 0.036536027 -7.64639 51.176807 -68.24358 27.579433 -43.565323 -91.08549 0.65257406 23.441624 -3.3540292 0.010409953 -0.043512143 -0.030162493 -0.027184842 -0.009387767 -0.05770748 -0.07027991 -0.027050225 0.014785492 -7.7523155 5.488357 -0.3975761 0.08249894 -0.004611442 0.010547154 -2.9421072 0.9635757 -0.16482623 -0.057776444 0.06911399 -0.015123283 -10.162452 0.7462833 -0.0066980887 -0.005643038 0.010310842 -0.045737244 -2.2365956 -0.81638205 0.16446663 0.01807007 -0.024840653 -0.06449131 7.4457593 -36.861313 2.3985803 -1.1780868 61.112488 1.2385321 -4.0638714 -22.28331 -7.7541533 0.07044475 -0.0008412369 -0.015243971 -8.95435 -37.98156 -7.1093802 1.0255215 61.511154 -1.8668518 7.8941016 -22.408998 14.9807415
0.31989554 74.34137 0.84860045 -178.44565 2.060404 -177.54272 -2.0371723 4.351827 4.533053 2.5026784 -6.836753 1.2738541 -5.435791 13.090468 -4.113353 6.1122723 -19.269941 -7.0675435 0.0117971 -0.029020177 0.05674404 -0.049825676 -0.033126093 -0.015389337 0.055657208 -0.060447175 0.066363506 17.01814 50.049145 43.12947 -26.1456 -46.432556 96.48438 -1.5475873 28.935995 3.9447215 0.08237972 -0.074252084 -0.039967388 -0.044576056 0.053455774 -0.08136294 -0.023039814 0.023628786 -0.06901808 7.7413573 5.3944664 0.37133288 0.10166713 -0.056227285 0.043571025 2.9240944 0.9811401 0.14308445 -0.08816389 -0.016595025 0.034627955 10.278015 0.76103187 0.06262163 0.043069333 -0.037787832 0.12002633 2.184382 -0.7713209 -0.29430047 -0.008993138 0.016215365 0.05127575 -6.4597793 48.90841 -69.70923 27.254581 -43.62786 -91.12605 0.7889978 24.902552 -3.7116427 0.013344029 -0.07128306 -0.05978921 -0.047676757 0.0007104452 -0.049655363 -0.068360426 -0.028351106 -0.00089539384 -7.7550097 5.469337 -0.42804554 0.095196895 -0.013384765 0.0015103891 -2.9498434 0.9777273 -0.17440735 -0.050310474 0.07439093 -0.009969392 -10.191144 0.7611704 -0.010529239 -0.02128078 -0.029706452 -0.062436115 -2.2484221 -0.8475691 0.16913743 0.022256566 -0.019477546 -0.09244698 6.87939 -36.86903 2.2281296 -1.1725184 61.464825 1.4700727 -3.8852026 -22.642868 -7.7050023 0.0818114 0.0026136192 -0.036157478 -8.989812 -38.278263 -6.9495006 1.1176014 61.993084 -1.8833822 7.864713 -22.255419 15.228128
0.70838594 74.48219 0.8123098 -178.4281 1.8816714 -177.74904 -1.9159709 4.434321 4.4966073 2.4107008 -6.845557 1.2250115 -5.367632 13.113355 -4.1207843 6.1599483 -18.949602 -7.063805 0.03170617 -0.022695398 0.06970489 -0.078459 -0.049179833 -0.0068029384 0.051330935 -0.06945425 0.071268275 16.256935 48.16331 43.63989 -26.05164 -46.586193 97.14154 -1.8015956 29.031006 3.869606 0.055070348 -0.07076705 -0.049537797 -0.0470815 0.05415547 -0.09603888 -0.018189691 0.04474631 -0.05577299 7.7530217 5.3964972 0.39473322 0.10298928 -0.051146332 0.036776077 2.9422617 0.99017954 0.12690635 -0.09522877 -0.02024477 0.018872488 10.2906 0.74257517 0.0902187 0.052735563 -0.031940103 0.110734805 2.2131772 -0.7818151 -0.28053084 -0.05484783 0.01645878 0.061391596 -5.5083485 46.518867 -69.6261 27.02613 -43.728157 -90.958954 0.60130996 25.321514 -4.0663466 0.009785616 -0.10495066 -0.07193215 -0.061754514 0.010228521 -0.025975455 -0.06651373 -0.016045544 -0.008640859 -7.7384777 5.4675026 -0.4500664 0.10174923 -0.025567241 0.01910455 -2.9578142 0.9934682 -0.18594532 -0.050827935 0.063385144 0.0025181666 -10.214616 0.76234686 0.0028071026 -0.033140663 -0.052090958 -0.07767758 -2.2493773 -0.85733694 0.19693327 0.034477863 -0.016528694 -0.103547476 6.7988915 -37.0431 2.251259 -1.1170064 61.42145 1.7113191 -4.2324843 -22.629572 -7.9265165 0.07005173 0.009881095 -0.0495688 -9.245486 -38.436035 -6.879918 1.2026309 62.13048 -1.928758 7.87214 -22.296963 15.078287
